<?xml version="1.0" encoding="UTF-8"?>
<!-- Generated by Pixelmator Pro 2.4.2 -->
<svg width="1800" height="1000" viewBox="0 0 1800 1000" xmlns="http://www.w3.org/2000/svg" xmlns:xlink="http://www.w3.org/1999/xlink">
    <path id="Path-copy-2" fill="#b59572" fill-rule="evenodd" stroke="none" d="M 20.391691 210.964478 L 32.368279 213.663147 C 64.714752 220.935852 71.438866 214.075928 98.646019 202.351501 C 160.875565 175.493408 243.525101 194.902893 309.59848 194.425659 C 363.812866 194.051758 418.011017 198.104736 472.281586 196.368652 C 519.283386 194.864258 565.660645 197.32605 612.831726 194.044983 C 670.777893 190.029053 724.527161 172.044922 780.482422 158.982056 C 832.615723 146.81604 887.932617 143.82251 941.246765 140.052246 C 995.28241 136.240967 1050.571777 151.041748 1104.284546 154.334167 C 1143.745605 156.728638 1182.859863 162.287354 1222.561279 162.860657 C 1279.67395 163.677551 1336.545288 170.513855 1393.748779 167.195679 C 1448.799927 163.996216 1503.946045 169.023621 1559.232666 165.191895 C 1614.936035 161.336792 1668.878662 144.030212 1724.829224 143.422363 C 1745.737793 143.18396 1807.348633 149.452332 1815.614258 169.642395 C 1843.723755 238.328918 1825.294067 345.199219 1833.315918 420.666992 C 1843.293213 514.597046 1845.745972 609.049988 1852.332153 703.25946 C 1853.249512 716.378967 1859.450806 781.270752 1850.436157 786.033081 C 1837.505127 792.868774 1785.075317 794.817627 1766.364502 798.607178 C 1723.886353 807.213074 1684.020996 823.144287 1641.003052 830.095886 C 1560.111572 843.155945 1487.506592 854.605164 1405.100342 850.373596 C 1340.12439 847.031006 1275.612183 837.500488 1210.518677 835.225647 C 1100.237549 831.367004 995.799622 821.342651 885.053101 829.06311 C 777.829956 836.560913 670.971375 847.49646 563.82074 855.051758 C 477.661469 861.134888 391.473877 857.197876 305.313324 860.41626 C 229.633362 863.250244 153.19519 860.904053 77.617828 856.06842 C 45.42062 853.995667 41.818996 849.010132 26.4121 822.80365 C 6.057083 788.178833 1.671782 749.705688 -5.366331 710.196228 C -17.549219 641.800171 -39.085518 576.083679 -44.777081 506.456665 C -49.494759 448.741089 -58.574776 389.912048 -55.232555 331.930542 C -52.061474 276.904297 -30.966457 221.322449 19.302069 194.733826 C 24.095249 192.198486 15.101937 209.772644 20.391691 210.964478 Z"/>
</svg>
