<?xml version="1.0" encoding="UTF-8"?>
<!-- Generated by Pixelmator Pro 2.4.2 -->
<svg width="1800" height="1600" viewBox="0 0 1800 1600" xmlns="http://www.w3.org/2000/svg" xmlns:xlink="http://www.w3.org/1999/xlink">
    <path id="Path-copy" fill="#b5754d" fill-rule="evenodd" stroke="none" d="M -2.327065 95.849365 L 9.619942 102.718994 C 41.887638 121.241699 49.18869 108.828491 77.594032 89.747681 C 142.567078 46.024536 224.956741 94.958496 291.955841 103.007202 C 346.928589 109.64563 401.571106 124.881836 456.697327 128.881592 C 504.440247 132.343994 551.269104 143.426636 599.309448 143.460449 C 658.322449 143.53064 714.071777 115.894775 771.708191 98.119019 C 825.407471 81.566406 881.683228 83.265503 935.984253 83.183472 C 991.01947 83.119873 1046.006226 119.383911 1100.210815 133.076782 C 1140.03479 143.088989 1179.283081 159.201294 1219.479858 165.708374 C 1277.305542 175.053833 1334.460083 196.060181 1392.671021 197.384888 C 1448.692017 198.647827 1504.226318 215.905884 1560.530762 215.972412 C 1617.259277 216.050293 1673.156616 189.756958 1729.905518 196.176636 C 1751.113281 198.553833 1813.11145 219.10083 1820.057861 259.446533 C 1843.678955 396.70105 1817.426392 601.812317 1820.208252 749.51178 C 1823.663208 933.343262 1819.455078 1117.168213 1819.453613 1301.081787 C 1819.453613 1326.693359 1821.139648 1453.599854 1811.665649 1461.626831 C 1798.075684 1473.149902 1744.800049 1469.813477 1725.567993 1474.633545 C 1681.906616 1485.581543 1640.374023 1511.115356 1596.282715 1518.776245 C 1513.373779 1533.159058 1438.977295 1545.538208 1355.758423 1526.123047 C 1290.142212 1510.802734 1225.434692 1483.524414 1159.623657 1470.262451 C 1048.127197 1447.785156 942.98999 1414.123657 830.201355 1414.077637 C 720.999451 1414.077637 611.923279 1420.805664 502.790833 1420.927246 C 415.037354 1421.040527 327.965332 1401.68396 240.413605 1396.231689 C 163.511185 1391.456543 86.207451 1376.514771 9.952568 1356.853882 C -22.532377 1348.453369 -25.82929 1338.278809 -39.586891 1285.275024 C -57.762794 1215.244873 -59.480671 1139.908203 -63.813728 1062.197754 C -71.313789 927.671204 -88.483437 797.079468 -89.317307 661.043274 C -90.008324 548.279541 -95.041656 432.76001 -87.54512 320.574585 C -80.43148 214.106934 -55.112576 108.994873 -2.281119 64.17041 C 2.756448 59.89624 -7.603758 92.81543 -2.327065 95.849365 Z"/>
</svg>
