<?xml version="1.0" encoding="UTF-8"?>
<!-- Generated by Pixelmator Pro 2.4.2 -->
<svg width="1800" height="1200" viewBox="0 0 1800 1200" xmlns="http://www.w3.org/2000/svg" xmlns:xlink="http://www.w3.org/1999/xlink">
    <g id="delicate-arch-copy">
        <path id="Path" fill="#b14013" fill-rule="evenodd" stroke="none" d="M 787.195374 747.649841 L 795.263855 750.07019 C 819.714233 757.388306 865.991272 756.681519 893.410767 759.035034 C 944.510986 763.427734 996.800049 764.93103 1048.064941 766.714172 C 1078.496582 767.773743 1106.032227 771.990051 1135.315918 779.718628 C 1179.679321 791.435547 1192.167725 780.524292 1186.578247 733.648987 C 1183.342896 706.477356 1168.999634 678.311768 1159.666504 652.725525 C 1149.076904 623.695984 1149.353394 594.064331 1133.521484 566.627502 C 1122.274414 547.133789 1106.317017 531.05835 1095.60791 510.938416 C 1081.641113 484.669189 1074.240234 478.260803 1077.848022 447.55249 C 1079.020508 437.553101 1049.673218 408.988037 1044.230103 394.62677 C 1032.288208 363.138428 1026.46167 346.532288 998.188232 326.090088 C 975.809998 309.900208 953.484436 318.24646 943.92926 284.990845 C 942.372009 279.576111 926.00238 250.995789 926.019104 250.909729 C 927.622314 242.655945 927.725769 240.446472 918.752319 235.319519 C 897.933716 223.435974 884.780334 200.779114 864.859131 186.836243 C 837.743408 167.835693 866.974976 167.768555 878.883789 162.756348 C 891.39386 157.496338 884.408203 132.439331 886.000305 122.393188 C 887.513184 112.837891 883.673645 94.407715 873.446106 91.387329 C 843.082092 82.422241 825.269226 78.990479 793.588989 80.061401 C 769.442566 80.897217 712.208618 70.696411 692.371338 58.078613 C 687.091003 54.720459 616.76416 58.978271 604.656006 58.979858 C 588.504456 58.979858 518.798279 63.017944 510.741974 76.446533 C 503.353943 88.766235 519.517212 95.239014 503.441284 104.585571 C 480.869995 117.688965 486.048737 138.789673 465.902802 152.052612 C 450.723969 162.042603 449.928986 170.593262 447.244537 187.084351 C 445.851746 195.641785 426.799011 211.950073 422.358826 225.092773 C 414.173706 249.293213 408.302917 274.604797 400.759338 299.039612 C 391.022858 330.585938 380.973724 343.001709 394.601746 375.658875 C 406.123413 403.236389 389.034851 428.648987 390.239838 455.931396 C 390.516724 462.202454 392.122253 460.723572 396.691406 461.963196 C 405.081482 464.22821 394.806335 481.539917 390.375 483.125 C 376.584686 488.057861 369.755219 490.61676 366 498.75 C 358.020142 516.03363 357.124695 540.551453 356 570 C 354.564026 607.496033 363.496063 621.246338 322.124512 640.630493 C 297.065857 652.348938 286.125977 643.827209 277.82077 674.868469 C 271.349274 699.05365 218.457123 699.557495 259.180725 732.547913 C 285.919159 754.215393 345.017181 747.323608 379.60968 754.506531 C 418.206635 762.514343 451.839661 760.29541 490.528015 760.066833 C 513.689087 759.922791 528.949524 766.013794 531.625 755 C 532.545532 751.210632 540.065369 742.905273 536 734.375 C 532.394775 726.810608 527.708191 721.476135 523.5 714.375 C 517.477051 704.211731 536.546265 709.854431 541.625 701.25 C 550.272644 686.599426 550.439819 658.609009 549.75 643.75 C 548.461182 615.969849 540.104065 605.94574 523.5 577.5 C 517.527893 567.268677 491.683655 540.053711 488.5 511.875 C 487.653748 504.384766 476.81366 488.27301 477.875 480.625 C 481.394409 455.263977 512.362793 449.083252 523.5 430 C 532.212219 415.071716 536.864624 396.875305 544.75 386.25 C 561.280945 363.97522 570.993958 369.742126 571 341.875 C 571.00293 318.041687 581.382324 306.421814 600.375 295.625 C 607.992981 291.294556 609.682495 280.717773 619.125 275.625 C 629.864441 269.832764 646.280762 268.492737 655.375 266.875 C 661.82782 265.727234 667.911499 267.920532 671.625 268.75 C 683.384521 271.377563 682.358215 275.061035 687.875 277.5 C 696.267822 281.210327 689.383057 300.714722 700.375 305.625 C 712.161438 310.890198 725.425781 312.026672 738.5 320 C 754.957703 330.036926 764.247375 349.576721 776 363.125 C 783.203247 371.428833 794.135681 384.14917 797.25 391.25 C 817.79071 438.124084 806.645081 420.559692 806 472.5 C 805.840637 485.360107 825.126404 494.833984 827.875 510 C 830.678955 525.471191 819.775574 531.056519 816.625 544.375 C 811.260742 567.052612 808.395935 594.069214 806 611.25 C 799.987305 654.354248 795.213562 683.77594 783.5 725.625 C 782.899719 727.769775 785.062195 747.009888 787.195374 747.649841 Z"/>
        <path id="path1" fill="#98421b" fill-rule="evenodd" stroke="none" d="M 513.5 95 L 520.529724 95.259399 C 546.402344 95.259399 568.468201 95.81543 593.872009 98.261353 C 626.0354 101.317383 657.300598 110.43457 689.508301 113.738647 C 712.182373 116.067139 732.710632 123.355957 754.667847 128.205566 C 784.964905 134.912964 812.010193 150.684448 842.153503 157.742065 C 847.341675 158.951782 876.561523 169.244995 878.954346 167.158447 C 885.262695 161.652588 890.151001 139.268188 889.125 130.625 C 887.106445 113.653198 886.599182 92.5271 871.625 90 C 859.51947 87.96228 840.892517 81.471802 821 79.375 C 804.054443 77.589111 785.698914 80.022583 774.98114 79.97644 C 752.88324 79.881592 732.982727 68.189087 710.779114 65.959717 C 702.781006 65.159912 696.140442 58.272949 688.5 57.5 C 648.387756 53.441162 611.067993 56.264282 568.386353 58.312622 C 553.730347 59.023682 506.782135 62.367554 508.249268 84.081421 C 508.608215 89.37439 512.454651 95 513.5 95 Z"/>
        <path id="path2" fill="#98421b" fill-rule="evenodd" stroke="none" d="M 539.388916 136.328735 L 543.695129 137.189941 C 568.391907 142.119751 584.760193 156.60498 604.256653 170.647949 C 626.468506 186.636353 640.421326 211.77887 659.962524 230.737 C 665.70343 236.30127 681.654236 257.836914 672.875 265 C 663.537842 272.648621 643.168945 252.30957 639.14325 245.429993 C 618.537598 210.214844 579.987793 190.799866 551.497131 163.183594 C 544.065918 155.988159 533.767273 148.177856 538.897522 137.200928 C 539.038818 136.89856 539.061707 136.263428 539.388916 136.328735 Z"/>
        <path id="path3" fill="#802d0e" fill-rule="evenodd" stroke="none" d="M 610.449463 222.093201 L 604.15033 220.203552 C 583.48645 213.995972 548.999329 260.116882 531.752319 269.916992 C 501.376221 287.150269 464.421875 277.663574 460.982788 323.057556 C 458.012817 362.329712 446.045258 385.136719 499.31662 387.827454 C 514.28595 388.56781 540.011169 375.188599 556.625 373.125 C 563.880127 372.223816 568.177185 359.936829 571 351.875 C 574.190979 342.761841 571.693237 332.558289 576.625 323.75 C 584.051636 310.493774 591.212158 303.587036 600.375 296.875 C 613.028442 287.606201 625.503723 278.151855 638.576599 265.04425 C 654.023987 249.559631 621.899414 229.587708 610.342041 225.882263 C 606.22699 224.562073 602.130066 223.147888 598.002625 221.830139"/>
        <path id="path4" fill="#98421b" fill-rule="evenodd" stroke="none" d="M 1042.778809 407.628174 L 1038.41748 405.883789 C 1028.160767 401.77124 994.451172 401.640015 980.921875 400.02533 C 940.995056 395.261536 901.857544 385.851746 862.063599 380.353088 C 852.504456 379.030762 812.894592 372.748413 810.455505 386.813049 C 808.694946 396.886902 844.895264 400.052795 851.460327 400.743408 C 880.066772 403.778687 908.689697 407.5177 937.195068 411.429138 C 960.17572 414.579163 1012.570374 426.161194 1033.199951 419.327698 C 1037.824707 417.800293 1039.23584 414.771423 1041.144775 410.565491 C 1041.607788 409.545288 1043.819214 408.044128 1042.778809 407.628174 Z"/>
        <path id="path5" fill="#802d0e" fill-rule="evenodd" stroke="none" d="M 680.729492 241.777039 C 680.479431 260.29541 719.855591 291.968689 732.056213 304.97345 C 747.544128 321.480408 763.834534 338.822937 777.491211 356.879883 C 779.18512 359.118958 789.580872 373.619385 791.011353 373.131714 C 798.557983 370.577698 791.680237 339.00177 789.932556 333.392944 C 780.478149 303.080139 745.353821 267.995605 719.340576 250.455627 C 717.204224 249.015198 680.998047 221.882935 680.729492 241.777039 Z"/>
        <path id="path6" fill="#7a3d2e" fill-rule="evenodd" stroke="none" d="M 837.829346 534.619751 L 843.263123 534.619751 C 865.993896 534.619751 897.040466 534.693054 913.587585 552.650879 C 929.609436 570.059326 925.924316 587.652466 953.988586 593.590393 C 972.363647 597.461243 990.223206 605.019226 1008.509766 608.356567 C 1027.190796 611.757813 1054.985352 608.076843 1075.06543 608.084595 C 1090.061035 608.084595 1104.480957 607.699585 1119.376709 607.137634 C 1150.869507 605.9245 1160.94519 626.240723 1167.106445 654.644226 C 1173.571045 684.445862 1185.586426 723.162964 1187.444336 752.834473 C 1190.582642 802.776978 1176.942017 801.655884 1134.264526 800.130493 C 1092.519775 798.614746 1051.093628 788.946167 1009.651123 784.048584 C 975.103577 779.965454 940.841858 777.056396 906.17688 774.279175 C 874.903992 771.766724 843.716125 764.829834 812.685181 760.258789 C 769.898682 753.96106 780.972839 731.350769 786.146545 697.30127 C 790.603516 667.928528 800.406311 639.98175 803.360168 610.331848 C 804.548767 598.371399 811.57019 546.788879 820.067932 540.477234 C 825.282715 536.603821 833.145264 537.070496 839.208679 536.259827 C 839.904114 536.166809 837.128113 534.619751 837.829346 534.619751 Z"/>
        <path id="path7" fill="#9a644a" fill-rule="evenodd" stroke="none" d="M 227.083008 726.64093 L 234.344574 723.372192 C 247.134506 717.587585 248.976608 688.021851 274.968506 684.967346 C 322.306946 679.389648 385.480804 690.702515 432.852722 697.614441 C 453.063263 700.551758 518.34436 707.712402 527.59314 725.454407 C 542.078003 753.222961 518.182007 777.301025 566.814026 784.606323 C 598.479919 789.380493 629.232239 803.320618 660.005981 812.108154 C 681.938416 818.381958 760.782959 832.296143 778.470215 817.009583 C 799.155884 799.126282 755.553955 743.684387 813.642883 751.619263 C 872.658997 759.74762 932.848755 766.858215 992.454895 767.791443 C 1034.078613 768.444519 1076.716797 776.222229 1117.854858 782.119751 C 1147.588989 786.377258 1841.397583 871.252136 1861 895.625 C 1880.989014 920.478516 1869.417847 1191.009277 1861 1198.75 C 1840.033691 1218.03772 808.381592 995.831909 723.671204 967.858582 C 649.333679 943.310547 567.803528 945.699158 489.410492 944.059448 C 452.08493 943.260193 414.353851 935.4776 377.244537 931.637573 C 327.798096 926.548767 279.221344 915.509644 229.298325 915.319214 C 169.423462 915.079956 110.091644 903.103027 50.255825 901.604614 C 15.009978 900.723267 -23.938486 900.105286 -58.560299 892.958374 C -84.401558 887.636414 -64.568771 830.148621 -61.27829 816.049805 C -51.858727 775.681458 -58.038963 732.902832 -58.050045 691.787415 C -58.057743 663.179932 -55.290035 650.111694 -20.976431 654.465637 C 4.89693 657.730408 29.122156 669.831543 45.904526 689.304199 C 71.099968 718.569946 153.509598 721.520691 192.012604 725.476074 C 206.847183 727.003479 221.51474 727.156372 236.434067 727.199402 C 239.556625 727.208557 224.235626 727.922668 227.083008 726.64093 Z"/>
        <path id="path8" fill="#6b3628" fill-rule="evenodd" stroke="none" d="M 298.339355 681.871643 L 290.052704 681.054382 C 279.933838 680.059204 233.320938 698.908386 231.033218 708.661804 C 224.799988 735.239258 306.269501 742.052002 324.313202 743.37616 C 364.376587 746.311035 404.00943 752.011414 444.262177 753.376465 C 472.208984 754.342651 499.418365 761.219482 527.171692 762.895203 C 544.410522 763.936462 546.696289 718.526917 522.395569 710.129395 C 485.230988 697.284241 426.211975 692.730103 386.205811 688.18634 C 351.464294 684.257507 316.912476 678.28064 281.923431 676.730652"/>
        <path id="path9" fill="#6b3628" fill-rule="evenodd" stroke="none" d="M 811.65918 735.487671 L 803.487305 734.5578 C 750.551941 728.603821 761.148499 811.610413 792.875 819.375 C 853.865234 834.333191 941.322632 829.128418 1003.371582 837.240906 C 1040.463379 842.08374 1078.344849 848.630371 1115.001099 856.773987 C 1137.911743 861.878052 1201.189697 886.079407 1214.102295 855.846558 C 1229.907349 818.826294 1192.931519 784.699097 1163.593628 779.700012 C 1108.950928 770.426941 1053.430176 769.355469 998.939209 758.470764 C 940.493652 746.786194 880.452942 739.117126 821.143982 736.004944 C 809.58136 735.391846 797.812195 733.547668 786.336853 731.875"/>
        <path id="path10" fill="#7a3d2e" fill-rule="evenodd" stroke="none" d="M 527.887512 719.972534 L 536.670898 717.422485 C 574.392883 706.44928 547.942749 633.804626 543.102234 608.863525 C 534.476318 564.405212 494.143799 538.760681 486.625 494.375 C 482.860565 472.145081 476.176208 468.620605 449.411896 467.150269 C 428.909821 466.022339 395.187439 454.668579 389.3815 479.395752 C 385.942841 494.031677 353.701141 478.232117 351.788757 512.727356 C 349.610992 551.975098 350.322968 584.924622 343.5 623.75 C 342.333557 630.387573 335.422668 632.653503 331.625 633.75 C 325.428802 635.538635 322.393921 636.875 316.198273 644.077148 C 309.701508 651.636963 256.447632 673.777466 271.625 684.375 C 285.892395 694.337158 353.769806 698.144836 372.518738 699.814148 C 411.318573 703.266907 450.406738 705.968018 489.134094 709.985657 C 501.576904 711.272888 513.603699 714.739685 525.916931 716.669922 C 527.22583 716.874695 526.618408 720.341187 527.887512 719.972534 Z"/>
        <path id="path11" fill="#904737" fill-rule="evenodd" stroke="none" d="M 356.44635 656.25946 L 350.726074 650.539246 C 340.88327 640.703125 296.105011 641.711426 286.168335 650.261536 C 251.715118 679.884338 343.573212 682.132263 356.92926 683.496399 C 365.204559 684.347534 400.05191 688.525085 376.011383 672.672424 C 366.629364 666.488037 357.194122 658.933716 346.029816 656.51825 C 342.635132 655.783691 358.902344 658.715515 356.44635 656.25946 Z"/>
    </g>
</svg>
