<?xml version="1.0" encoding="UTF-8"?>
<!-- Generated by Pixelmator Pro 2.4.2 -->
<svg width="1800" height="400" viewBox="0 0 1800 400" xmlns="http://www.w3.org/2000/svg" xmlns:xlink="http://www.w3.org/1999/xlink">
    <g id="La-Sal-copy">
        <path id="Path" fill="#9ba2a3" fill-rule="evenodd" stroke="none" d="M 29.623859 189.901794 L 40.207108 183.946899 C 55.440914 175.391296 92.472816 158.854736 107.456451 169.440369 C 128.689896 184.427246 134.007156 232.848572 168.989243 198.049988 C 202.030075 165.176147 220.610352 185.785278 261.111359 187.48938 C 302.600311 189.262146 325.370056 183.569702 362.513977 166.099915 C 393.698853 151.43927 393.605408 140.061707 428.032776 163.629517 C 468.24881 191.183533 573.5896 182.510437 622.114746 178.799194 C 658.402283 176.013245 672.005432 128.433594 709.469971 119.45166 C 770.507629 104.814514 831.099976 110.000671 893.235291 107.052063 C 944.339294 104.651245 959.205627 106.23999 1007.032654 122.886414 C 1043.126831 135.460266 1075.041504 155.831055 1112.23291 166.099915 C 1153.200806 177.413696 1191.964478 174.649719 1233.847046 177.502808 C 1284.416504 180.956787 1328.848389 207.56781 1378.714844 213.345398 C 1419.986084 218.118347 1448.183105 223.942322 1487.928711 207.673706 C 1554.686279 180.297607 1621.256104 197.179626 1690.41748 197.739624 C 1737.863647 198.12262 1784.434082 182.392334 1813.657715 234.400391 C 1822.043335 249.319519 1850.210693 311.522888 1833.894897 321.345581 C 1811.738403 334.687866 1694.968384 323.830627 1657.813354 329.799255 C 1589.536621 340.741333 1509.076172 340.035461 1439.539673 340.053772 C 1372.942505 340.053772 1305.926514 341.887268 1239.37085 344.279846 C 1154.110962 347.349304 1069.364014 360.716003 984.084961 363.168396 C 925.544556 364.845642 867.376282 373.474182 808.707275 374.037231 C 761.0224 374.510254 713.282959 379.53833 665.489563 379.928345 C 598.706848 380.515198 532.382751 380.271667 465.546204 379.045776 C 381.178314 377.47168 297.047241 373.795532 212.739792 370.931152 C 147.517136 368.725647 87.705101 352.310547 25.408796 335.255188 C -26.214661 321.124634 -41.043907 310.137695 -39.104408 252.525391 C -37.347836 200.323242 0.952701 191.336426 44.744942 189.449524 C 49.782879 189.232544 25.229162 192.374634 29.623859 189.901794 Z"/>
        <path id="path1" fill="#ffffff" fill-rule="evenodd" stroke="none" d="M 80.806381 192.947144 L 73.660423 202.354492 C 59.722763 220.711731 28.893854 209.537109 51.576916 240.063538 C 66.477196 260.120605 92.868385 253.398804 111.644058 243.650574 C 121.820885 238.368896 88.911537 195.728516 84.545189 189.765991 C 83.578407 188.445801 81.796181 191.644043 80.806381 192.947144 Z"/>
        <path id="path2" fill="#ffffff" fill-rule="evenodd" stroke="none" d="M 419.42511 159.991211 L 408.706146 164.694885 C 385.113922 175.046448 402.961029 208.043274 418.736969 214.66803 C 450.130981 227.852234 456.49411 235.207886 490.20932 222.423767 C 505.130737 216.761536 551.688354 198.355469 505.165466 189.533752 C 479.921234 184.739136 461.657959 187.167114 436.985596 176.390442 C 430.666443 173.630127 424.861572 169.737 418.957733 166.202454 C 417.1763 165.135864 421.326385 159.15686 419.42511 159.991211 Z"/>
        <path id="path3" fill="#ffffff" fill-rule="evenodd" stroke="none" d="M 981.392517 126.884827 L 969.482666 123.311829 C 945.246887 116.038879 934.309265 127.907776 935.530945 149.954285 C 939.277893 217.611755 1034.763672 187.88031 1076.567383 212.809509 C 1097.543823 225.328125 1096.196167 202.425598 1084.914429 190.949463 C 1046.296509 151.6828 1003.056396 131.268372 949.492065 119.723572"/>
        <path id="path4" fill="#ffffff" fill-rule="evenodd" stroke="none" d="M 1277.572754 196.14325 L 1265.662842 193.761353 C 1243.925293 189.411377 1220.318604 222.077698 1203.182617 234.361328 C 1192.944946 241.692871 1121.0448 265.360474 1176.684692 270.200562 C 1199.324219 272.169861 1224.464722 264.906372 1250.281372 266.870789 C 1268.739868 268.275818 1349.203857 276.712402 1331.982666 235.909485 C 1324.880127 219.080261 1266.32312 204.841064 1250.210083 203.394531"/>
        <path id="path5" fill="#ffffff" fill-rule="evenodd" stroke="none" d="M 1538.30957 212.560791 L 1527.590698 217.264465 C 1518.821533 221.111511 1476.610474 272.02124 1509.750977 274.238647 C 1542.36853 276.412415 1581.019653 293.680481 1612.273315 292.821716 C 1639.738892 292.059387 1635.917725 262.612671 1671.795288 259.924988 C 1698.099609 257.952332 1724.129883 267.216248 1750.834106 265.593628 C 1764.285278 264.779114 1796.485229 264.521851 1792.906738 241.651367 C 1789.042114 216.966309 1737.305054 212.215637 1718.780151 215.424866 C 1684.350342 221.389526 1649.12854 230.209717 1614.75354 224.647278 C 1581.745605 219.314636 1547.494019 219.267639 1514.203247 215.877441"/>
    </g>
</svg>
