<?xml version="1.0" encoding="UTF-8"?>
<!-- Generated by Pixelmator Pro 2.4.2 -->
<svg width="1800" height="1700" viewBox="0 0 1800 1700" xmlns="http://www.w3.org/2000/svg" xmlns:xlink="http://www.w3.org/1999/xlink">
    <g id="River-copy">
        <linearGradient id="linearGradient1" x1="-80.64799" y1="897.173871" x2="1609.379501" y2="654.66089" gradientUnits="userSpaceOnUse">
            <stop offset="0" stop-color="#348cf6" stop-opacity="1"/>
            <stop offset="1" stop-color="#53b6f9" stop-opacity="1"/>
        </linearGradient>
        <path id="Path" fill="url(#linearGradient1)" fill-rule="evenodd" stroke="none" d="M 1798.078125 114.898438 L 1791.90625 116.117188 C 1774.349976 119.57251 1756.641602 121.824097 1738.93396 125.919556 C 1695.477051 135.982544 1669.659546 174.207397 1639.129883 202.595215 C 1613.797119 226.150879 1586.287598 246.139526 1564.297729 273.05188 C 1544.293457 297.528198 1530.765259 325.442627 1509.017944 348.808472 C 1469.455444 391.271606 1382.657959 431.887451 1326.183105 444.060791 C 1294.656982 450.868164 1263.242676 459.842529 1231.966187 467.737183 C 1191.960327 477.836792 1151.479248 487.308228 1111.749756 498.613037 C 1059.855957 513.382446 1019.001404 550.977539 969.212097 570.023682 C 934.572632 583.283447 901.616272 600.44519 871.584229 621.911987 C 833.406372 649.184082 797.127808 679.383057 757.202576 704.098572 C 714.874146 730.304626 675.292053 761.472229 632.203674 786.363342 C 595.871582 807.360657 559.923828 828.475342 518.716003 838.248596 C 479.828094 847.465637 442.620697 858.7948 405.063599 872.195129 C 369.699188 884.809998 335.189545 897.087952 298.433411 905.212524 C 250.847702 915.735962 199.437881 924.028809 150.682098 924.127136 C 112.115807 924.213928 75.462822 923.705933 37.068821 927.756897 C 21.118925 929.438477 -11.266437 928.554993 -20.046759 942.710693 C -63.522739 1012.795715 -80.642792 1091.114502 -80.647987 1172.449585 C -80.651085 1223.017334 -78.045593 1272.436523 -72.820686 1322.59082 C -67.636246 1372.355469 -53.689808 1409.939209 -59.768028 1461.361572 C -65.828171 1512.634033 -64.732544 1546.938843 -54.062527 1597.196289 C -49.845383 1617.060669 -48.885025 1635.952271 -46.143677 1655.990234 C -43.92337 1672.219482 -32.920597 1685.28064 -16.860029 1680.980957 C 13.754842 1672.78479 41.06168 1663.026855 68.984566 1648.082275 C 108.322639 1627.026855 150.330017 1609.453857 191.774033 1592.912354 C 223.717453 1580.161865 248.197281 1559.496338 276.907166 1541.619263 C 303.115051 1525.299561 331.723572 1513.359741 357.981323 1496.744873 C 396.598267 1472.30957 432.285736 1443.779297 472.358185 1421.416992 C 509.981354 1400.420776 544.710144 1373.608154 580.546326 1349.746948 C 600.067749 1336.750244 674.983093 1296.36499 687.216614 1289.695313 C 728.858765 1266.992676 772.518188 1249.283936 818.780701 1238.395752 C 874.846191 1225.205078 959.020203 1139.099121 968.999939 1125 C 989.911682 1095.456299 1011.756042 1016.834473 1036.338745 985.934998 C 1074.360352 938.159607 1117.647583 892.94519 1164.133423 853.330322 C 1203.327515 819.90863 1248.907593 791.498413 1292.078247 763.489624 C 1324.676147 742.343384 1357.727051 725.161072 1393.890625 710.773743 C 1455.255737 686.341553 1520.570435 664.257568 1569.949341 619.005615 C 1607.649292 584.444458 1621.777588 564.980957 1641.87146 518.241577 C 1652.790039 492.879028 1660.958862 455.515991 1668.028687 426.08728 C 1681.800903 368.797607 1727.039185 283.582764 1779.813354 254.306885 C 1808.015015 238.676514 1824.354736 241.204468 1834.533936 204.776611 C 1838.69519 189.896484 1851.609009 137.944214 1843.55127 125.496704 C 1835.451538 112.973999 1810.630615 112.910522 1797.953125 112.539063 C 1797.165894 112.515991 1798.850708 114.74585 1798.078125 114.898438 Z"/>
        <path id="path1" fill="none" stroke="#adfffb" stroke-width="1.898374" stroke-linecap="round" stroke-linejoin="round" d="M 1461.251343 437.948242 L 1462.151733 437.00769 C 1471.15271 427.620728 1484.739624 437.687744 1492.889771 441.74707 C 1502.528931 446.552368 1512.297363 433.890137 1522.487305 433.853882 C 1523.545532 433.849976 1524.59082 433.885986 1525.647827 433.94458"/>
        <path id="Path-copy" fill="none" stroke="#adfffb" stroke-width="1.898374" stroke-linecap="round" stroke-linejoin="round" d="M 1525.16333 485.407593 L 1526.063721 484.467041 C 1535.064697 475.080078 1548.651489 485.147095 1556.801636 489.206421 C 1566.440918 494.011719 1576.209229 481.349487 1586.39917 481.31311 C 1587.45752 481.309326 1588.502686 481.345337 1589.559692 481.403931"/>
        <path id="Path-copy-5" fill="none" stroke="#adfffb" stroke-width="1.898374" stroke-linecap="round" stroke-linejoin="round" d="M 1397.765747 569.151001 L 1399.631226 567.880005 C 1418.272461 555.201294 1434.662354 578.075562 1445.453491 588.365479 C 1458.213989 600.542969 1479.644287 582.49292 1495.614014 586.497803 C 1497.272705 586.913452 1498.891479 587.393188 1500.5177 587.916748"/>
        <path id="Path-copy-6" fill="none" stroke="#adfffb" stroke-width="1.898374" stroke-linecap="round" stroke-linejoin="round" d="M 1190.210205 540.675415 L 1192.075684 539.404419 C 1210.716919 526.725708 1227.106689 549.599854 1237.897949 559.889771 C 1250.658447 572.067261 1272.088745 554.017334 1288.058472 558.022095 C 1289.717041 558.437866 1291.335938 558.917603 1292.962158 559.441162"/>
        <path id="Path-copy-7" fill="none" stroke="#adfffb" stroke-width="1.898374" stroke-linecap="round" stroke-linejoin="round" d="M 1111.111328 693.178101 L 1112.976807 691.907104 C 1131.618042 679.228394 1148.007813 702.1026 1158.79895 712.392517 C 1171.559448 724.570007 1192.989868 706.520081 1208.959595 710.524841 C 1210.618164 710.940552 1212.236938 711.420349 1213.863281 711.943848"/>
        <path id="Path-copy-8" fill="none" stroke="#adfffb" stroke-width="1.898374" stroke-linecap="round" stroke-linejoin="round" d="M 1026.803223 745.97583 L 1024.09375 747.891174 C 997.018188 766.999084 972.34845 733.79657 956.226929 718.947266 C 937.163025 701.373779 906.124756 728.446838 882.551697 722.966614 C 880.103455 722.397766 877.712097 721.733765 875.308533 721.005676"/>
        <path id="Path-copy-9" fill="none" stroke="#adfffb" stroke-width="1.898374" stroke-linecap="round" stroke-linejoin="round" d="M 1026.803223 918.727844 L 1024.09375 920.64325 C 997.018188 939.751099 972.34845 906.548584 956.226929 891.69928 C 937.163025 874.125793 906.124756 901.198853 882.551697 895.718628 C 880.103455 895.14978 877.712097 894.485779 875.308533 893.75769"/>
        <path id="Path-copy-10" fill="none" stroke="#adfffb" stroke-width="1.898374" stroke-linecap="round" stroke-linejoin="round" d="M 725.594604 918.727844 L 722.885071 920.64325 C 695.809509 939.751099 671.139771 906.548584 655.01825 891.69928 C 635.954346 874.125793 604.916077 901.198853 581.343018 895.718628 C 578.894775 895.14978 576.503418 894.485779 574.099854 893.75769"/>
        <path id="Path-copy-11" fill="none" stroke="#adfffb" stroke-width="1.898374" stroke-linecap="round" stroke-linejoin="round" d="M 785.659546 1129.105957 L 781.639893 1131.176758 C 741.478577 1151.827148 714.48468 1102.342773 695.545532 1079.246826 C 673.152405 1051.916504 626.132874 1082.563965 595.361267 1070.697876 C 592.165344 1069.46582 589.064148 1068.116333 585.958801 1066.677979"/>
        <path id="Path-copy-12" fill="none" stroke="#adfffb" stroke-width="1.898374" stroke-linecap="round" stroke-linejoin="round" d="M 365.62442 1129.613892 L 361.241913 1130.727417 C 317.46463 1141.814209 302.294159 1087.525879 289.035858 1060.761353 C 273.364685 1029.094238 220.656036 1048.37915 193.342422 1029.89502 C 190.505524 1027.975708 187.787445 1025.963135 185.085205 1023.863037"/>
        <path id="Path-copy-13" fill="none" stroke="#adfffb" stroke-width="1.898374" stroke-linecap="round" stroke-linejoin="round" d="M 358.317688 1398.217651 L 353.832153 1398.788818 C 309.030029 1404.457764 300.588715 1348.725342 290.69104 1320.544434 C 278.995911 1287.203613 224.329895 1299.921143 199.472519 1278.246094 C 196.890686 1275.995361 194.438141 1273.666504 192.011978 1271.252808"/>
        <path id="Path-copy-2" fill="none" stroke="#adfffb" stroke-width="1.898374" stroke-linecap="round" stroke-linejoin="round" d="M 1602.62854 315.367554 L 1603.061768 315.039673 C 1607.391846 311.768677 1613.466919 316.213013 1617.148682 318.112671 C 1621.503052 320.361206 1626.24939 315.853149 1630.949951 316.249634 C 1631.43811 316.290771 1631.919556 316.346802 1632.406006 316.412109"/>
        <path id="Path-copy-3" fill="none" stroke="#adfffb" stroke-width="1.898374" stroke-linecap="round" stroke-linejoin="round" d="M 1659.530273 230.638428 L 1659.843018 230.371216 C 1662.968384 227.7052 1666.165771 231.60022 1668.207764 233.289917 C 1670.622681 235.289673 1674.1698 231.587646 1677.043701 232.030029 C 1677.342163 232.075928 1677.634399 232.134277 1677.928589 232.200562"/>
        <path id="Path-copy-4" fill="none" stroke="#adfffb" stroke-width="1.898374" stroke-linecap="round" stroke-linejoin="round" d="M 1716.197998 241.660278 L 1716.391357 241.94812 C 1718.324951 244.821411 1722.707642 243.155762 1725.217163 242.646973 C 1728.185303 242.044067 1730.134399 245.775269 1732.963135 246.405029 C 1733.256958 246.470459 1733.549438 246.525269 1733.84668 246.575073"/>
    </g>
</svg>
