<?xml version="1.0" encoding="UTF-8"?>
<!-- Generated by Pixelmator Pro 2.4.2 -->
<svg width="1800" height="1100" viewBox="0 0 1800 1100" xmlns="http://www.w3.org/2000/svg" xmlns:xlink="http://www.w3.org/1999/xlink">
    <g id="West-Temple-copy">
        <path id="Path" fill="#9f9183" fill-rule="evenodd" stroke="none" d="M 1464.842529 484.590271 L 1471.535645 481.566956 C 1496.373169 470.343506 1500.073242 464.678772 1528.251099 470.355347 C 1544.506226 473.628662 1555.312866 457.417969 1577.426758 458.45929 C 1599.988281 459.528625 1646.870728 482.57373 1660.896484 463.927795 C 1666.511475 456.465027 1685.367432 402.60791 1688.23999 444.202881 C 1692.304321 503.193787 1653.467529 506.851318 1636.957764 555.693054 C 1630.443359 574.962036 1605.157715 589.908569 1580.270386 591.382324 C 1549.123779 593.227783 1520.350586 562.553711 1497.080566 544.287659 C 1479.808838 530.722473 1458.781616 510.21283 1454.44043 488.226013 C 1453.726807 484.611816 1461.494385 486.1026 1464.842529 484.590271 Z"/>
        <path id="path1" fill="#a7483b" fill-rule="evenodd" stroke="none" d="M 22.608446 385.059448 L 29.477673 386.43335 C 43.85466 389.314697 47.349564 381.445801 62.174091 390.562988 C 72.420784 396.866089 91.464813 398.361633 93.784294 384.794678 C 95.063782 377.311462 111.307655 386.9953 121.026077 386.058472 C 133.352081 384.871582 132.698135 380.851685 139.479172 372.753357 C 144.554779 366.693176 183.461487 381.467407 185.555649 378.155579 C 188.625488 373.299683 185.726273 370.767639 192.309448 367.490601 C 210.716736 358.323547 233.818909 359.877014 245.730362 341.633057 C 250.836273 333.813538 308.00943 328.313354 319.386871 327.376221 C 341.181213 325.585571 352.34848 320.27948 375.373138 321.605957 C 390.74588 322.489929 453.985168 301.406128 464.313232 290.161926 C 479.348541 273.805725 459.669952 256.969055 487.925476 247.42572 C 522.112 235.879211 524.982605 230.576355 563.210083 237.34198 C 603.440613 244.44574 652.228699 243.295349 693.681274 245.635193 C 719.915222 247.117615 745.170898 250.101868 771.645386 250.104919 C 795.80957 250.104919 820.01239 256.198792 844.467957 256.269226 C 886.89447 256.385071 929.395874 258.531311 971.780151 260.166931 C 994.652588 261.044922 994.896973 285.401123 1011.335632 294.897888 C 1029.83374 305.58374 1044.780518 319.325195 1061.889771 331.644165 C 1079.170044 344.087952 1126.263184 344.012573 1148.840088 347.456299 C 1159.103149 349.018555 1203.506104 356.409119 1205.775879 367.437744 C 1207.190674 374.306824 1195.938477 382.535706 1207.907837 375.97583 C 1224.50708 366.886719 1224.426025 353.807556 1244.521118 370.153625 C 1253.45166 377.421326 1305.725342 537.624817 1427.992676 632.250854 C 1571.523804 743.333496 1759.753052 758.405029 1759.324707 787.876587 C 1758.623779 836.531738 1782.134644 918.868896 1782.134155 967.934204 C 1782.134155 996.361389 1780.515747 1023.361328 1782.963013 1051.758667 C 1784.136108 1065.347534 1747.235962 1055.948975 1736.696167 1056.981934 C 1702.633057 1060.321411 1673.748901 1062.434937 1639.424438 1061.922363 C 1564.548706 1060.805908 1489.797974 1058.340454 1414.815918 1058.340454 C 1362.369385 1058.340454 1310.145264 1050.881592 1257.670654 1050.710571 C 1198.175903 1050.517822 1138.688599 1047.905273 1079.145752 1047.904541 C 1030.724976 1047.904541 982.227539 1045.817383 933.744629 1045.817261 C 883.466919 1045.817261 833.730896 1046.379883 783.536072 1048.297729 C 731.029846 1050.304199 679.164307 1045.170776 626.790344 1042.666138 C 580.729553 1040.457397 545.982239 1017.045288 507.63446 994.434814 C 484.537292 980.809509 460.570923 968.740234 437.335876 955.383362 C 417.674957 944.085571 409.01593 941.478271 401.605164 918.76532 C 392.348969 890.40271 352.593903 902.413574 341.347137 872.741699 C 333.096863 850.976807 320.986542 829.385986 310.391602 808.631958 C 299.705292 787.700317 246.52803 786.781494 226.78476 774.461853 C 220.182861 770.342407 216.366562 738.898132 210.915878 728.512817 C 195.687088 699.49762 161.448303 699.140747 132.689972 691.144531 C 102.183533 682.660522 70.472656 671.885681 45.844414 652.206665 C 28.813366 638.59082 18.58515 646.776855 18.998646 619.74707 C 19.640207 577.809265 15.346431 536.272095 16.75869 494.234436 C 17.633886 468.185059 17.647032 443.491638 16.562998 417.448425 C 16.313759 411.460449 13.826296 383.302979 22.608446 385.059448 Z"/>
        <path id="path2" fill="#80746a" fill-rule="evenodd" stroke="none" d="M 1264.78772 374.603699 L 1272.435669 375.36853 C 1304.668823 378.632202 1341.431152 383.225891 1370.568848 397.052368 C 1404.698853 413.249939 1425.596069 424.364807 1444.954224 458.174194 C 1468.405884 499.159424 1515.995605 554.909485 1562.298096 568.388672 C 1604.283691 580.621582 1607.809204 554.535828 1626.538452 524.855225 C 1640.711426 502.386658 1644.794922 437.672546 1659.345459 427.290405 C 1678.175415 413.849915 1715.744385 431.521484 1721.841919 452.199646 C 1725.614258 464.976868 1736.485962 432.484131 1741.318726 427.426147 C 1760.737793 407.112366 1760.925781 407.273193 1788.670044 410.90332 C 1801.415039 412.569397 1834.006714 466.064514 1834 477.880249 C 1833.977173 521.865845 1794.884155 849.557617 1823.959595 853.138916 C 1865.446045 858.248901 1711.039551 803.138916 1686.474854 790.118652 C 1648.30896 769.893066 1605.223022 757.466064 1565.090454 741.614258 C 1529.184082 727.436401 1495.983032 712.284302 1462.020508 693.9198 C 1420.295532 671.354858 1381.360962 645.706299 1345.859619 614.283447 C 1284.410034 559.921509 1232.332397 465.986145 1236.683105 381.740723 C 1237.042603 374.770691 1240.553833 367.779114 1243.167603 361.484558"/>
        <path id="path3" fill="#314631" fill-rule="evenodd" stroke="none" d="M 258.917511 339.197693 L 258.290009 339.197693 C 242.947418 331.632019 315.556091 326.906006 335.475311 324.137146 C 363.25473 320.277466 383.316162 319.673401 407.852936 311.562622 C 429.811646 304.294617 463.466095 300.687012 487.378021 296.234436 C 524.431824 289.325073 539.849243 299.690674 574.01825 300.317749 C 592.254944 300.653748 610.593567 297.976074 628.999512 298.257324 C 661.677673 298.752808 671.346191 275.522156 704.632446 298.920227 C 730.566223 317.134155 765.944702 316.30719 798.294006 314.435059 C 812.885681 313.591064 828.196228 303.412964 847.409119 302.079773 C 892.628113 298.957764 936.341431 309.684631 981.356079 309.730774 C 1001.121582 309.753113 1007.31958 314.794006 1027.424561 309.289673 C 1040.769287 305.637451 1106.607788 343.740173 1106.700928 356.963074 C 1106.792358 369.257507 1045.591064 369.956848 1036.213135 370.030701 C 946.618591 370.760559 857.024231 370.795959 767.411316 370.795959 C 710.83075 370.795959 654.064514 372.856689 597.385742 372.856689 C 534.462952 372.856689 473.073181 370.624207 410.398224 365.855164 C 372.028107 362.927856 330.574158 361.276672 293.232697 352.864868 C 286.611481 351.37323 284.14505 343.443726 279.028442 340.844299 C 269.304535 335.904236 256.176117 339.440186 258.917511 339.197693 Z"/>
        <path id="path4" fill="#9f9183" fill-rule="evenodd" stroke="none" d="M 258.672028 338.243042 L 265.54126 337.547363 C 312.468475 332.801392 361.191223 334.320313 408.335815 332.307617 C 455.010345 330.306946 498.480988 330.399963 545.160767 331.149719 C 598.077576 332.016235 651.064575 331.259277 703.988159 331.259277 C 749.826477 331.259277 795.881165 329.485474 841.729004 330.989319 C 886.174744 332.43512 930.419556 338.043152 974.898621 338.101685 C 1013.644165 338.147461 1053.007202 340.816589 1091.605957 343.793152 C 1137.914185 347.362671 1183.203369 358.230652 1228.608276 367.244873 C 1251.717407 371.826416 1309.848267 378.705444 1319.146729 402.549438 C 1328.038086 425.336182 1333.789673 447.263062 1335.345825 471.650452 C 1338.489502 520.71991 1377.516479 572.376282 1426.832031 580.960449 C 1451.129517 585.189697 1469.246216 594.155518 1484.873535 612.929077 C 1513.89624 647.774414 1574.170288 635.805969 1613.901489 653.319336 C 1639.706421 664.683655 1654.355591 689.971191 1679.506958 702.640869 C 1702.984985 714.472656 1729.614624 720.128967 1754.221069 729.639526 C 1760.095581 731.911499 1781.660522 742.691895 1783.272949 735.537109 C 1787.240845 717.948425 1824.56543 763.179626 1823.959595 766.540771 C 1814.330811 819.992554 1822.496826 1035.987427 1823.959595 1074.026978 C 1825.118652 1104.5448 -23.079952 1102.961304 2.260657 1084.694824 C 7.57403 1080.864868 -1.171511 411.649048 -0.249435 390.654541 C 0.435884 375.060852 28.500456 371.175903 42.806404 378.539185 C 65.829605 390.399292 62.950474 404.746155 95.867882 398.425232 C 127.234863 392.405396 158.159439 384.665527 189.11998 376.847839 C 210.251404 371.508972 241.098877 357.041626 261.941833 348.071838 C 263.429321 347.431763 264.916809 346.791504 266.404297 346.151428 C 269.790833 344.694153 255.004028 338.614563 258.672028 338.243042 Z"/>
        <path id="path5" fill="#80746a" fill-rule="evenodd" stroke="none" d="M 138.943115 697.321777 L 145.812347 697.321777 C 178.802505 697.321777 241.405441 668.404602 267.208099 645.44397 C 280.77475 633.372742 293.949219 620.816101 307.419189 608.646667 C 327.858948 590.180908 349.700958 576.301453 372.281433 561.427063 C 391.762268 548.593872 408.493622 533.126465 426.269684 517.936707 C 452.49527 495.529724 475.038177 469.137329 505.660583 453.217041 C 525.757629 442.766907 538.183105 430.836792 558.019836 448.500916 C 576.76001 465.18158 588.698547 488.166199 609.217285 503.085205 C 636.800476 523.133545 660.032349 529.807007 692.040161 538.844421 C 722.164001 547.349182 743.870239 559.893555 765.457153 583.887268 C 780.186279 600.255432 793.85907 615.998413 807.309387 633.619385 C 842.601318 679.852661 859.802063 729.783569 862.589722 789.531006 C 864.401917 828.282837 875.757446 865.56897 877.123108 904.426086 C 879.101501 960.721436 895.620178 1014.448547 901.418091 1070.20813 C 903.640198 1091.523804 904.228943 1093.003662 881.968567 1094.702393 C 799.292603 1101.00708 711.680115 1095.961792 628.355164 1095.961792 C 591.831787 1095.961792 557.478088 1080.345703 521.1026 1077.840576 C 466.739838 1074.097168 466.135834 1038.863403 428.142456 1008.213989 C 405.645203 990.064941 383.68335 970.452759 360.754791 953.057251 C 335.702148 934.054199 315.731934 912.793884 295.222321 888.411438 C 265.898712 853.551392 234.398849 819.867615 199.897186 790.861023 C 177.903961 772.374023 135.007034 736.783813 136.072144 704.477661 C 136.157639 701.884277 136.512802 697.321777 138.943115 697.321777 Z"/>
        <path id="path6" fill="#625951" fill-rule="evenodd" stroke="none" d="M 531.301025 586.627136 L 537.483337 590.748718 C 560.391663 606.017334 580.669067 639.921875 581.347046 587.614258 C 581.449646 579.757568 576.125854 534.455872 586.962097 532.411804 C 593.662781 531.143982 623.622131 569.856628 628.374939 576.570557 C 664.335144 627.38269 641.505737 635.071411 630.819641 685.937378 C 620.897095 733.164246 637.85083 761.768677 650.030212 804.809875 C 659.161743 837.104248 677.408813 869.688416 683.780884 902.021667 C 689.376343 930.395508 698.366882 966.131287 700.786621 994.227051 C 702.242737 1011.116455 703.631042 1044.793457 680.315796 1043.880005 C 658.637512 1043.028687 605.09021 1040.966797 594.859741 1019.435974 C 585.273926 999.263977 579.730774 949.375916 576.046204 925.423889 C 569.888245 885.366089 552.000061 844.959106 547.182068 806.388855 C 542.327393 767.49646 536.152832 728.571106 531.664795 689.702271 C 528.231262 659.947815 525.57196 629.410645 525.395386 599.432068 C 525.367004 594.513855 526.672363 589.286377 527.417297 584.478271 C 527.643799 583.016174 530.070007 585.806396 531.301025 586.627136 Z"/>
        <path id="path7" fill="#314631" fill-rule="evenodd" stroke="none" d="M 4.770748 669.902222 C 6.97916 702.973755 113.689949 691.569702 138.770126 699.157288 C 186.866837 713.704834 171.557175 783.184998 206.334518 793.863159 C 234.072083 802.377441 247.183472 791.397705 269.57132 816.772461 C 287.810333 837.441406 295.371857 865.050537 309.066925 888.721191 C 319.881165 907.421265 345.80658 914.739502 362.424255 926.377747 C 386.461731 943.216125 370.510376 965.209595 410.31958 977.349792 C 430.229431 983.420044 444.911865 989.263 461.166046 1002.644043 C 479.470276 1017.711853 520.937622 1032.517456 543.624268 1038.77063 C 560.066101 1043.303589 584.407349 1055.776855 600.499695 1063.228882 C 626.944214 1075.473511 608.986938 1097.375 590.877136 1097.872803 C 544.127014 1099.155518 1.95477 1133.529663 -0.249434 1104.148071 C -1.210694 1091.334717 3.005005 643.459839 4.770748 669.902222 Z"/>
        <path id="path8" fill="#314631" fill-rule="evenodd" stroke="none" d="M 488.354309 255.473022 C 528.31897 240.380432 541.835266 242.373169 583.500793 244.149841 C 637.386597 246.445618 690.604553 255.41925 744.590576 255.455261 C 776.479858 255.475159 808.499268 256.851685 840.48114 256.829773 C 880.337158 256.806824 920.1026 264.094727 959.827576 266.124023 C 964.063782 266.341614 999.46405 271.388916 981.93866 257.488098 C 957.711304 238.257324 876.513062 249.659851 844.475525 249.671326 C 805.527527 249.694153 768.51123 245.813232 729.882019 242.007141 C 685.042603 237.608704 639.087646 234.310486 594.070557 232.546387 C 567.974548 231.518677 499.161499 226.191467 477.436096 240.466858 C 475.221985 241.922302 473.317413 244.857666 471.802979 246.688599 C 469.497559 249.47583 473.19577 261.196533 488.354309 255.473022 Z"/>
        <path id="path9" fill="#b03f34" fill-rule="evenodd" stroke="none" d="M 730.226746 348.837402 L 732.287476 355.706787 C 745.424561 399.481995 746.194031 407.592834 726.403442 448.544922 C 714.327698 473.53186 711.573669 497.817871 711.88092 525.239502 C 712.012329 537.153625 671.502808 523.540894 664.84198 517.466187 C 636.097229 491.253967 612.480652 474.019958 614.231506 432.120483 C 615.578064 399.90625 578.800598 365.242004 583.372437 344.913696 C 585.61322 334.963562 637.239075 340.567139 646.394653 340.753784 C 673.956055 341.325378 700.561523 343.496277 727.461426 349.136902 C 728.368835 349.327209 729.960327 347.94928 730.226746 348.837402 Z"/>
        <path id="Shape" fill="#b03f34" fill-rule="evenodd" stroke="none" d="M 1763.994629 435.132629 C 1771.241577 435.671509 1816.361206 437.625488 1799.542725 418.750732 C 1789.599731 407.585022 1765.350708 405.492126 1751.804321 406.195557 C 1747.499756 406.419067 1738.64917 433.24707 1763.994629 435.132629 Z"/>
        <path id="path10" fill="#b03f34" fill-rule="evenodd" stroke="none" d="M 831.028198 361.114136 L 837.21051 363.861694 C 858.037964 373.131409 884.857056 409.707581 903.727417 424.999634 C 928.620056 445.172913 956.183228 439.809387 971.332886 473.532349 C 984.098572 501.947205 1003.995789 528.217346 1007.439636 559.735229 C 1010.668945 589.312439 1012.741089 617.261475 1027.983154 643.237976 C 1044.076416 670.663818 1065.52002 693.836975 1074.292114 725.051025 C 1075.76062 730.283081 1092.792358 777.200195 1103.131592 764.719482 C 1111.082153 755.125977 1103.87207 692.567993 1102.289429 678.035034 C 1099.357788 651.159546 1097.20459 624.963989 1096.275269 597.91394 C 1095.491577 575.163025 1089.817627 552.327942 1088.729248 529.395508 C 1087.361694 500.523071 1085.699341 467.717102 1079.265015 439.565186 C 1075.02002 420.998657 1056.324463 408.609314 1053.625 385.671448 C 1050.899414 362.485901 1049.370972 343.216675 1019.145752 354.563904 C 997.318787 362.761536 1005.716187 412.155518 991.081543 416.404175 C 977.000366 420.49884 969.191528 367.482483 968.933655 359.513123 C 968.233643 337.941711 916.457703 342.891907 907.871399 358.621033 C 888.276367 394.509949 865.281982 342.934631 829.575134 357.371216 C 828.334351 357.872803 829.805176 360.570557 831.028198 361.114136 Z"/>
        <path id="path11" fill="#b03f34" fill-rule="evenodd" stroke="none" d="M 1123.375488 364.134644 L 1121.984009 371.004028 C 1113.420044 413.292542 1119.929932 477.395264 1133.183838 518.547913 C 1145.00415 555.285278 1158.765015 578.129028 1185.505005 605.499023 C 1197.837646 618.125732 1204.030762 633.266724 1214.644531 645.986755 C 1215.498779 647.009827 1216.29834 631.170532 1216.245605 629.249695 C 1215.132324 588.846436 1188.693237 541.333984 1179.232422 501.538208 C 1174.252808 480.571777 1147.145508 422.235046 1161.741455 403.762451 C 1167.700439 396.223999 1218.471191 380.653076 1211.463989 366.642761 C 1207.695435 359.105469 1157.258423 361.679749 1147.232788 360.938965 C 1136.093384 360.110596 1124.895386 360.533936 1113.767334 361.158081 C 1110.4198 361.345886 1124.041138 360.848572 1123.375488 364.134644 Z"/>
        <path id="path12" fill="#b03f34" fill-rule="evenodd" stroke="none" d="M 1221.182617 395.970886 L 1215.616821 400.092529 C 1200.611572 411.207336 1232.926392 426.935425 1218.421509 448.265869 C 1205.016113 467.989868 1211.669434 473.137817 1230.051147 460.706116 C 1238.941406 454.694092 1279.045898 443.662292 1264.962402 424.871338 C 1255.045898 411.637878 1224.774292 408.767517 1210.552979 399.167786 C 1207.486206 397.097717 1224.15625 393.76886 1221.182617 395.970886 Z"/>
        <path id="path13" fill="#b03f34" fill-rule="evenodd" stroke="none" d="M 1227.391357 533.399475 L 1234.26062 534.773315 C 1246.103149 537.138062 1235.467529 555.88147 1257.628052 550.054871 C 1272.146729 546.235413 1300.10144 538.471619 1306.325195 556.629028 C 1311.924194 572.983826 1308.937378 585.770203 1310.075684 602.265015 C 1311.200806 618.543091 1320.304443 631.32959 1320.668701 651.195801 C 1320.977051 668.024414 1298.731689 666.122437 1295.122925 649.153442 C 1289.698853 623.627686 1304.100098 607.429443 1269.367554 601.568237 C 1217.290039 592.774658 1229.185913 575.046021 1229.553711 532.014282 C 1229.584717 528.413147 1230.41394 524.695679 1230.984497 521.184631 C 1231.665283 516.995422 1223.229614 532.567139 1227.391357 533.399475 Z"/>
        <path id="path14" fill="#b03f34" fill-rule="evenodd" stroke="none" d="M 493.638184 436.000854 L 492.246735 428.347778 C 489.333252 412.31189 454.905975 374.107483 438.02655 377.193787 C 415.400238 381.327515 414.908234 431.232483 385.017487 441.580811 C 358.176208 450.869385 337.246704 495.212891 371.665405 507.263794 C 397.948883 516.466858 423.014343 502.085205 439.108826 482.755188 C 452.683075 466.449951 486.205139 485.134766 488.759827 442.264465 C 488.877045 440.296936 488.994293 438.329468 489.111542 436.361877 C 489.201569 434.850891 493.908905 437.490051 493.638184 436.000854 Z"/>
        <path id="path15" fill="#9f9183" fill-rule="evenodd" stroke="none" d="M 451.25827 419.459778 L 444.300964 420.137878 C 436.433319 420.898132 423.604858 449.698425 450.867096 451.31842 C 473.690002 452.677185 458.22879 429.379028 451.548889 421.124207 C 451.194611 420.686401 451.818817 419.405151 451.25827 419.459778 Z"/>
        <path id="path16" fill="#b03f34" fill-rule="evenodd" stroke="none" d="M 230.534622 389.436401 L 225.655701 384.566223 C 215.858398 374.785828 179.137924 391.310852 211.878387 408.287109 C 238.036667 421.8573 215.959595 437.454285 201.78392 450.049683 C 189.073257 461.346619 184.660843 475.595825 207.090881 477.993591 C 221.216171 479.499695 228.150528 451.732422 232.890762 440.212036 C 241.197739 420.022583 234.640167 402.592285 229.513046 382.628845 C 228.942261 380.406311 232.1586 391.057495 230.534622 389.436401 Z"/>
        <path id="path17" fill="#b03f34" fill-rule="evenodd" stroke="none" d="M 353.705109 550.819153 L 348.835022 545.949036 C 329.220886 526.331787 275.017639 532.548035 270.915771 561.414185 C 268.188049 580.61438 331.132324 579.821899 338.929596 570.98114 C 343.74295 565.524841 346.205017 558.158203 349.204895 551.638184 C 349.842194 550.253052 354.783264 551.897278 353.705109 550.819153 Z"/>
        <path id="path18" fill="#b03f34" fill-rule="evenodd" stroke="none" d="M 854.727051 540.691467 L 854.727051 547.560669 C 854.727051 566.869446 859.889832 574.758789 853.015381 595.096069 C 845.377686 617.687378 828.64679 627.858276 808.185059 609.025879 C 800.245422 601.722473 780.992188 554.381836 803.779846 557.159424 C 811.175049 558.062256 816.262024 576.766357 820.06012 576.437439 C 825.828064 575.937805 835.875244 520.149658 852.026611 551.595093 C 853.571289 554.601807 854.338074 558.203247 855.264282 561.369568"/>
        <path id="path19" fill="#b03f34" fill-rule="evenodd" stroke="none" d="M 1307.990234 433.901367 L 1301.728638 438.022949 C 1290.531494 445.388184 1285.552734 482.840271 1301.527954 479.854492 C 1307.19043 478.797791 1301.267578 445.391541 1303.867188 438.234741 C 1304.9021 435.386658 1305.890503 432.655762 1307.039185 429.806274 C 1307.56311 428.506531 1309.160889 433.13092 1307.990234 433.901367 Z"/>
        <path id="path20" fill="#b03f34" fill-rule="evenodd" stroke="none" d="M 1397.712891 423.544739 L 1390.755615 422.848938 C 1365.502319 420.332031 1393.588135 450.246094 1398.73291 433.124023 C 1399.718506 429.842957 1395.557129 426.020081 1393.952515 424.020264 C 1393.161743 423.034851 1398.970093 423.670471 1397.712891 423.544739 Z"/>
        <path id="path21" fill="#b03f34" fill-rule="evenodd" stroke="none" d="M 569.689453 385.314819 L 564.819336 380.444763 C 559.374695 375.004761 529.204163 396.297852 558.684753 399.109131 C 570.272461 400.21936 582.137451 397.762573 569.689453 385.314819 Z"/>
    </g>
</svg>
